<svg xmlns="http://www.w3.org/2000/svg" width="24" height="24" viewBox="0 0 24 24"><path fill="black" d="M13.98 11.08h2.12a.19.19 0 0 0 .19-.19V9.01a.19.19 0 0 0-.19-.19h-2.12a.19.19 0 0 0-.19.19v1.88c0 .1.09.19.19.19m-2.95-5.43h2.12a.19.19 0 0 0 .19-.19V3.58a.19.19 0 0 0-.19-.19h-2.12a.19.19 0 0 0-.19.19v1.88c0 .1.08.19.19.19m0 2.71h2.12a.19.19 0 0 0 .19-.19V6.29a.19.19 0 0 0-.19-.19h-2.12a.19.19 0 0 0-.19.19v1.88c0 .11.08.19.19.19m-2.93 0h2.12a.19.19 0 0 0 .19-.19V6.29a.19.19 0 0 0-.19-.19H8.1a.19.19 0 0 0-.19.19v1.88c0 .11.09.19.19.19m-2.96 0h2.12a.19.19 0 0 0 .19-.19V6.29a.19.19 0 0 0-.19-.19H5.14a.19.19 0 0 0-.19.19v1.88c0 .11.08.19.19.19m5.89 2.72h2.12a.19.19 0 0 0 .19-.19V9.01a.19.19 0 0 0-.19-.19h-2.12a.19.19 0 0 0-.19.19v1.88c0 .1.08.19.19.19m-2.93 0h2.12a.19.19 0 0 0 .19-.19V9.01a.19.19 0 0 0-.19-.19H8.1a.19.19 0 0 0-.19.19v1.88c0 .1.09.19.19.19m-2.96 0h2.12a.19.19 0 0 0 .19-.19V9.01a.19.19 0 0 0-.19-.19H5.14a.19.19 0 0 0-.19.19v1.88c0 .1.08.19.19.19m-2.92 0h2.12a.19.19 0 0 0 .19-.19V9.01a.19.19 0 0 0-.19-.19H2.22a.19.19 0 0 0-.19.19v1.88c0 .1.08.19.19.19m21.54-1.19c-.06-.05-.67-.51-1.95-.51-.34 0-.68.03-1.01.09a3.77 3.77 0 0 0-1.72-2.57l-.34-.2-.23.33a4.6 4.6 0 0 0-.6 1.43c-.24.97-.09 1.88.4 2.66a4.7 4.7 0 0 1-1.75.42H.76a.75.75 0 0 0-.76.75c.03 1.37.15 2.74.54 4.06.44 1.36 1.14 2.37 2.14 3.08 1.15.81 3.02 1.27 5.14 1.27.93 0 1.86-.08 2.78-.25a12.9 12.9 0 0 0 3.82-1.4 11 11 0 0 0 2.85-2.32c1.27-1.42 2.03-3.01 2.58-4.4h.22c1.37 0 2.22-.55 2.68-1.01.32-.31.56-.67.72-1.07l.1-.28z"/></svg>
