<svg xmlns="http://www.w3.org/2000/svg" width="24" height="24" viewBox="0 0 24 24"><path fill="black" d="M12 2a1.5 1.5 0 0 0-1.29.74L4.03 13.05a1.5 1.5 0 0 0 0 1.5l6.68 10.31a1.5 1.5 0 0 0 2.58 0l6.68-10.31a1.5 1.5 0 0 0 0-1.5l-6.68-10.31A1.5 1.5 0 0 0 12 2m0 2.6 5.53 8.55L12 21.7l-5.53-8.55zm-.5 3.6v3.5l-3.03 1.75.5-.87.88-.5-1.35.77v.5l2.5 1.45v1l-2.5 1.45v.5l1.35.77-.88-.5-.5-.87 3.03 1.75v.1h1v-.1l3.03-1.75-.5.87-.88.5 1.35-.77v-.5l-2.5-1.45v-1l2.5-1.45v-.5l-1.35-.77.88.5.5.87-3.03-1.75v-3.5z"/></svg>
